<svg id="Слой_1" data-name="Слой 1" xmlns="http://www.w3.org/2000/svg" viewBox="0 0 1327.72 521.57"><defs><style>.cls-1{fill:#ffffff;}.cls-2{fill:#f99b1c;}</style></defs><path class="cls-1" d="M1038.11,57.09a28.75,28.75,0,0,1-28.76,28.75H923.07V287.16a28.76,28.76,0,1,1-57.51,0V85.84H779.28a28.76,28.76,0,1,1,0-57.51h230.07A28.75,28.75,0,0,1,1038.11,57.09Z"/><path class="cls-1" d="M608.75,28.32h92a28.76,28.76,0,1,1,0,57.52h-92a28.76,28.76,0,1,0,0,57.51h57.51a28.77,28.77,0,1,1,0,57.53H608.75a28.76,28.76,0,1,0,0,57.51h92a28.76,28.76,0,1,1,0,57.51h-92a86.24,86.24,0,0,1-64.3-143.79,86.25,86.25,0,0,1,64.3-143.79Z"/><path class="cls-1" d="M1327.72,114.6v57.51a28.76,28.76,0,0,1-57.52,0V114.6a28.76,28.76,0,1,0-57.51,0v57.51a28.77,28.77,0,0,1-57.53,0V114.6a28.76,28.76,0,1,0-57.51,0V287.15a28.76,28.76,0,1,1-57.52,0V114.6a86.23,86.23,0,0,1,143.79-64.3,86.26,86.26,0,0,1,143.8,64.3Z"/><path class="cls-1" d="M1270.2,252.64a28.76,28.76,0,0,1,57.52,0v34.51a28.76,28.76,0,0,1-57.52,0Z"/><path class="cls-2" d="M18.11,250.26l190.4,190.4c7.12,7.12,1.23,19.27-8.76,18A230.1,230.1,0,0,1,.09,259C-1.16,249,11,243.14,18.11,250.26Z"/><path class="cls-2" d="M65.66,123.21l269.9,269.9c13.48,13.48,9.8,36.38-7.38,44.65l-.89.43a27.77,27.77,0,0,1-31.53-5.52L26.1,163a27.77,27.77,0,0,1-5.52-31.53c.14-.3.29-.59.43-.89C29.28,113.41,52.18,109.73,65.66,123.21Z"/><path class="cls-2" d="M99.15,40l.38-.26a22.34,22.34,0,0,1,28.28,2.79L416.25,331A22.34,22.34,0,0,1,419,359.24l-.26.38a22.35,22.35,0,0,1-34.26,3.09L96.06,74.25A22.35,22.35,0,0,1,99.15,40Z"/><path class="cls-2" d="M189.53,3.6l.4-.07a16.74,16.74,0,0,1,14.64,4.65l246,246a16.74,16.74,0,0,1,4.65,14.64c0,.13-.05.26-.07.39A16.67,16.67,0,0,1,427,278.17L180.6,31.82A16.67,16.67,0,0,1,189.53,3.6Z"/><path class="cls-2" d="M279,5.92l.37.09a11,11,0,0,1,5.35,3L449.79,174a11.07,11.07,0,0,1,3,5.36c0,.12.06.25.08.37,2.45,10.9-10.8,18.27-18.7,10.37L268.64,24.62C260.73,16.72,268.1,3.47,279,5.92Z"/><path class="cls-2" d="M350.53,43a3.27,3.27,0,0,1,4.12-5,232.46,232.46,0,0,1,66.13,66.13,3.28,3.28,0,0,1-5,4.12Z"/><path class="cls-1" d="M674.53,365.76a47.93,47.93,0,1,0,47.93,47.94A47.93,47.93,0,0,0,674.53,365.76Zm0,76.69a28.76,28.76,0,1,1,28.76-28.75A28.76,28.76,0,0,1,674.53,442.45Z"/><path class="cls-1" d="M863.23,365.76a47.93,47.93,0,1,0,47.93,47.93A47.92,47.92,0,0,0,863.23,365.76Zm0,76.68A28.76,28.76,0,1,1,892,413.69,28.75,28.75,0,0,1,863.23,442.44Z"/><path class="cls-1" d="M1279.78,365.76A47.93,47.93,0,1,0,1308.54,452a9.59,9.59,0,1,0,19.18,0V413.7A48,48,0,0,0,1279.78,365.76Zm0,76.69a28.76,28.76,0,1,1,28.76-28.75A28.76,28.76,0,0,1,1279.78,442.45Z"/><path class="cls-1" d="M1012.91,375.35V452a9.59,9.59,0,1,1-19.18,0V423.27H941V452a9.59,9.59,0,0,1-19.18,0V375.35a9.59,9.59,0,0,1,19.18,0v28.76h52.71V375.35a9.59,9.59,0,1,1,19.18,0Z"/><path class="cls-1" d="M1119.44,375.35V452a9.59,9.59,0,1,1-19.17,0,47.92,47.92,0,0,1-76.68-38.33V375.35a9.58,9.58,0,1,1,19.16,0V413.7a28.76,28.76,0,0,0,57.52,0V375.35a9.59,9.59,0,1,1,19.17,0Z"/><path class="cls-1" d="M1218.77,451.54c0,.16,0,.32,0,.49a9.58,9.58,0,1,1-19.16,0,28.76,28.76,0,0,0-28.76-28.76h-19.17V452a9.59,9.59,0,1,1-19.17,0V375.35a9.59,9.59,0,1,1,19.17,0v28.76h19.17a28.76,28.76,0,0,0,28.76-28.76,7.46,7.46,0,0,1,.05-1,9.58,9.58,0,0,1,19.06,0c0,.31,0,.63,0,1,0,.17,0,.33,0,.49a47.87,47.87,0,0,1-19.15,37.86A47.8,47.8,0,0,1,1218.77,451.54Z"/><path class="cls-1" d="M816.81,375.35a9.59,9.59,0,0,1-9.59,9.59H778.47V452a9.59,9.59,0,1,1-19.17,0V384.94H730.54a9.59,9.59,0,0,1,0-19.18h76.68A9.59,9.59,0,0,1,816.81,375.35Z"/><path class="cls-1" d="M580,366.72h-.05c0-.31.05-.62.05-.95a9.58,9.58,0,1,0-19.16,0,7.36,7.36,0,0,0,0,.95h0a47.94,47.94,0,0,0,0,93.94h0a7.56,7.56,0,0,0,0,.95,9.58,9.58,0,1,0,19.16,0c0-.32,0-.63-.05-.95H580a47.94,47.94,0,0,0,0-93.94Zm-38.34,47a28.76,28.76,0,0,1,19.18-27.12v54.23A28.76,28.76,0,0,1,541.64,413.7ZM580,440.81V386.58a28.76,28.76,0,0,1,0,54.23Z"/></svg>